<?xml version="1.0" encoding="utf-8"?>
<!-- Generator: Adobe Illustrator 26.0.1, SVG Export Plug-In . SVG Version: 6.00 Build 0)  -->
<svg version="1.1" id="Layer_1" xmlns="http://www.w3.org/2000/svg" xmlns:xlink="http://www.w3.org/1999/xlink" x="0px" y="0px"
	 viewBox="0 0 1066.4 1010.7" style="enable-background:new 0 0 1066.4 1010.7;" xml:space="preserve">
<g>
	<path d="M258.8,234.5c-61,0-120.5,0-181,0c0-60.6,0-120.4,0-181.4c60.3,0,120.1,0,181,0C258.8,113.4,258.8,173.2,258.8,234.5z"/>
	<path d="M819,234.4c0-60.6,0-120.5,0-181.4c60.6,0,120.4,0,181.3,0c0,60.8,0,120.6,0,181.4C939.9,234.4,880,234.4,819,234.4z"/>
	<path d="M263,420.1c0-60.7,0-120.2,0-181c60.7,0,120.9,0,181.9,0c0,60.3,0,120.2,0,181C384.4,420.1,324.6,420.1,263,420.1z"/>
	<path d="M634.2,238.5c60.6,0,120.1,0,180.8,0c0,60.4,0,120.4,0,181.4c-59.8,0-119.7,0-180.8,0C634.2,360.1,634.2,300.2,634.2,238.5
		z"/>
	<path d="M444.5,790.9c-60.4,0-120,0-180.8,0c0-60.3,0-120.1,0-181.2c59.7,0,119.6,0,180.8,0C444.5,669.4,444.5,729.3,444.5,790.9z"
		/>
	<path d="M815.2,790.8c-61.3,0-120.8,0-181.3,0c0-60.7,0-120.5,0-181.3c60.6,0,120.5,0,181.3,0C815.2,669.9,815.2,729.8,815.2,790.8
		z"/>
	<path d="M999.8,975.8c-60.5,0-120.1,0-180.9,0c-0.4-5-1-9.3-1-13.6c-0.1-51.1,0.2-102.3-0.3-153.4c-0.1-11.2,2.2-15.9,14.8-15.7
		c51.6,0.7,103.3,0.4,154.9,0.2c8.5,0,14.3,0.6,14.2,11.7c-0.4,55.1-0.3,110.3-0.4,165.4C1001.2,971.8,1000.5,973.2,999.8,975.8z"/>
	<path d="M448.3,422.8c40.4,0,79.5,0,118.5,0c17.5,0,35.1,0.4,52.6-0.1c8.7-0.2,11.3,3.2,11.3,11.4c-0.2,53.6,0,107.3-0.5,160.9
		c0,3.7-5.2,10.6-8.1,10.6c-57.6,0.6-115.2,0.5-173.8,0.5C448.3,544.8,448.3,485,448.3,422.8z"/>
	<path d="M77.5,975.2c0-60.7,0-120.2,0-180.7c60.7,0,120.6,0,181.5,0c0,60.3,0,119.8,0,180.7C198.8,975.2,138.9,975.2,77.5,975.2z"
		/>
</g>
</svg>
