<?xml version="1.0" encoding="utf-8"?>
<!-- Generator: Adobe Illustrator 26.0.1, SVG Export Plug-In . SVG Version: 6.00 Build 0)  -->
<svg version="1.1" id="Layer_1" xmlns="http://www.w3.org/2000/svg" xmlns:xlink="http://www.w3.org/1999/xlink" x="0px" y="0px"
	 viewBox="0 0 410 404" style="enable-background:new 0 0 410 404;" xml:space="preserve">
<style type="label/css">
	.st0{fill:#040101;}
	.st1{fill:#030200;}
	.st2{fill:#020200;}
	.st3{fill:#030101;}
	.st4{fill:#040201;}
	.st5{fill:#050101;}
	.st6{fill:#040400;}
	.st7{fill:#020100;}
	.st8{fill:#020201;}
	.st9{fill:#040200;}
	.st10{fill:#040301;}
	.st11{fill:#010100;}
	.st12{fill:#FE2028;}
	.st13{fill:#E017A1;}
	.st14{fill:#FCFBFB;}
	.st15{fill:#FEDD16;}
	.st16{fill:#FBF9F9;}
	.st17{fill:#EB010A;}
</style>
<g>
	<path class="st0" d="M251.4,45.5c0-9.6,0.1-19.3,0.1-28.9c0.7-0.2,1.4-0.5,2-0.7l0.4,0.2l0.4-0.2c8.1,0.1,16.3,0.3,24.4,0.3
		c21.3,0,42.5-0.2,63.8-0.3l0.4,0.2c0,0,0.4-0.3,0.4-0.3c0.6,0.3,1.3,0.6,1.9,0.9c0,0-0.1-0.2-0.1-0.2c0.2,10,0.4,20.1,0.6,30.1
		c9.5,0.1,19,0.1,28.5,0.2c0.7,0.3,1.4,0.6,2.1,0.9c0,0-0.1-0.2-0.1-0.2c0,10.2,0.1,20.3,0.1,30.5c0,1.5,0,3.1,0,4.6
		c-0.2-0.1-0.4-0.3-0.6-0.4c0-0.9,0-1.7,0-2.6c-0.4-0.4-0.9-0.7-1.3-1.1c-9.6,0-19.2,0-29.8,0c0-10.4,0-20.2,0-30
		c-0.4-0.4-0.8-0.7-1.2-1.1c-7.3-0.1-14.6-0.3-21.9-0.3c-22.7,0-45.4,0.2-68.1,0.3c-0.5,0-1,0-1.5,0c-0.1-0.1-0.3-0.3-0.4-0.4
		C251.5,46.5,251.5,46,251.4,45.5z"/>
	<path class="st1" d="M376.4,82.7c0-1.5,0-3.1,0-4.6c10.3,0.2,20.7,0.4,31,0.6c0,0-0.1-0.1-0.1-0.1c0.1,41,0.1,82,0.2,123
		c-3.5,0.3-7.1,0.7-10.6,0.8c-6.4,0.2-12.9,0.2-19.3,0.2c-0.4,0-0.7-0.1-1.1-0.1l0,0c-0.1-1.6-0.3-3.3-0.3-4.9c0-31.8,0-63.6,0-95.4
		C376.2,95.7,376.3,89.2,376.4,82.7z"/>
	<path class="st2" d="M34.5,202.5c-10.1,0-20.2,0-31,0c0-41.6,0-82.7,0-123.9c9.3-0.2,18.7-0.3,28-0.5c1,0.2,2,0.3,3,0.5l0-0.1
		c0.1,10.3,0.3,20.7,0.4,31c0,0.6,0,1.3,0.1,1.9c-0.1,6.5-0.2,12.9-0.2,19.4C34.6,154.7,34.5,178.6,34.5,202.5L34.5,202.5z"/>
	<path class="st3" d="M65.4,45.5c0-9.6,0.1-19.3,0.1-28.9c0.8-0.1,1.6-0.4,2.4-0.4c30.2,0,60.4,0.1,90.6,0.1c0,10.4,0,20.8,0,31.2h0
		c-0.4,0-0.7,0-1.1,0c-19.3,0-38.7,0-58,0c-0.3,0-0.7,0-1,0c-0.5,0-1,0-1.5,0.1c-10.5,0-20.9,0-31.4,0l0,0c-0.1-0.3-0.2-0.7-0.3-1
		C65.3,46.2,65.4,45.8,65.4,45.5z"/>
	<path class="st4" d="M251.5,47.1c0.1,0.1,0.3,0.3,0.4,0.4c-0.2,10.3-0.4,20.7-0.6,31c-10.3,0-20.6,0.1-30.9,0.1c0-0.3,0-0.7-0.1-1
		c0-0.3,0.1-0.7,0.1-1c0.1-9.7,0.1-19.4,0.2-29.1C230.9,47.3,241.2,47.2,251.5,47.1z"/>
	<path class="st5" d="M314.4,264.5c0,0.4,0,0.7,0,1.1c-0.1,10-0.2,19.9-0.3,29.9l-0.4,0c0,0-0.2,0.3-0.2,0.3c-9.3,0-18.7,0.1-28,0.1
		c-0.3,0-0.7,0-1,0c-0.6,0-1.3,0-1.9-0.1c0,0-0.1-0.1-0.1-0.1c0-10.2,0-20.5,0-31c11.4,0,21.7,0,32,0L314.4,264.5z"/>
	<path class="st2" d="M65.5,233.4c-10.1,0-20.2,0-31,0c0-10.5,0-20.8,0-31l-0.1,0.1c10.4,0,20.7-0.1,31.1-0.1l0.1,0.1
		C65.5,212.8,65.5,223.2,65.5,233.4L65.5,233.4z"/>
	<path class="st1" d="M96.5,264.5c-10.1,0-20.2,0-31,0c0-10.5,0-20.8,0-31c0,0-0.1,0.1-0.1,0.1c10.4,0,20.7-0.1,31.1-0.1
		C96.5,243.8,96.5,254.2,96.5,264.5L96.5,264.5z"/>
	<path class="st6" d="M376.1,233.4c-10.2,0-20.4,0-30.6,0c0,0,0,0.1,0,0.1c0-10.4,0-20.8,0-31.2c10.3,0.1,20.7,0.1,31,0.2l0,0
		C376.3,212.8,376.2,223.1,376.1,233.4z"/>
	<path class="st3" d="M189.5,388.4c0-9.6-0.1-19.3-0.1-28.9c0-0.3-0.1-0.7-0.1-1c0.1-0.3,0.1-0.7,0.2-1l-0.1,0.1
		c10.4,0,20.7,0,31.1,0l0,0c0,10.1,0,20.2,0,31.3c-8.3,0-16.6,0-25,0C193.5,388.7,191.5,388.6,189.5,388.4z"/>
	<path class="st0" d="M251.5,326.6c0,10.1,0,20.2,0,31c-10.3,0-20.6,0-31,0l0,0c0-10.2,0-20.5,0-31
		C231.6,326.6,241.5,326.6,251.5,326.6L251.5,326.6z"/>
	<path class="st7" d="M158.5,357.5c0-10.3,0-20.7,0-31l0,0.1c10.2,0,20.5,0,31,0c0,10.8,0,20.9,0,31l0.1-0.1c-0.7,0.1-1.3,0.3-2,0.4
		C177.9,357.8,168.2,357.6,158.5,357.5z"/>
	<path class="st3" d="M282.7,326.6c-10.4,0-20.8,0-31.2,0c0,0,0,0,0,0c0-10.2,0-20.4,0-31c10.9,0,20.9,0,31,0c0,0,0.1,0.1,0.1,0.1
		C282.7,305.9,282.7,316.3,282.7,326.6z"/>
	<path class="st8" d="M34.3,76.5c0.1-9.7,0.1-19.4,0.2-29.1c0.7-0.2,1.4-0.4,2.1-0.6c9.6,0.2,19.3,0.5,28.9,0.7c0,0,0,0,0,0
		c0,10.3,0,20.7,0,31c-10.3,0-20.7,0-31-0.1l0,0.1c-0.1-0.4-0.2-0.7-0.3-1.1C34.3,77.2,34.3,76.9,34.3,76.5z"/>
	<path class="st9" d="M158.5,326.5c-10.1,0-20.2,0-30.9,0c0-10.6,0-20.8,0-31l-0.1,0.1c10.2,0,20.5,0,31,0
		C158.4,306.3,158.4,316.4,158.5,326.5L158.5,326.5z"/>
	<path class="st10" d="M127.5,295.5c-10.1,0-20.2,0-31,0c0-10.6,0-20.8,0-31c0,0-0.1,0.1-0.1,0.1c10.3,0,20.7,0,31,0
		C127.5,275.4,127.5,285.5,127.5,295.5L127.5,295.5z"/>
	<path class="st3" d="M158.5,47.5c10.4,0,20.8,0,31.2,0c0.1,9.4,0.1,18.7,0.2,28.1c-0.1,1-0.2,2-0.3,2.9c-10.2,0-20.4,0-31.2,0
		c0-10.6,0-20.3,0-30C158.4,48.2,158.5,47.8,158.5,47.5L158.5,47.5z"/>
	<path class="st11" d="M345.4,233.4c0,10.2,0,20.5,0,31.1c-10.9,0-20.9,0-31,0c0,0,0.1,0.1,0.1,0.1c0-10.2,0-20.4,0-31
		c10.5,0,20.7,0,31,0L345.4,233.4z"/>
	<g>
		<path class="st12" d="M220.4,78.5C220.4,78.5,220.5,78.5,220.4,78.5c0.1,0,0.1-0.1,0.1-0.1L220.4,78.5z"/>
		<path class="st12" d="M189.5,78.4C189.5,78.5,189.5,78.5,189.5,78.4c0,0.1,0.1,0.1,0.1,0.1C189.6,78.5,189.5,78.4,189.5,78.4z"/>
		<path class="st13" d="M376.5,202.5c-0.1-1.6-0.3-3.3-0.3-4.9c0-31.8,0-63.6,0-95.4c0-6.5,0.2-13,0.3-19.5
			c-0.2-0.1-0.4-0.3-0.6-0.4c0-0.9,0-1.7,0-2.6c-0.4-0.4-0.9-0.7-1.3-1.1c-9.6,0-19.2,0-29.8,0c0-10.4,0-20.2,0-30
			c-0.4-0.4-0.8-0.7-1.2-1.1c-7.3-0.1-14.6-0.3-21.9-0.3c-22.7,0-45.4,0.2-68.1,0.3c0,8.7,0.1,17.5-0.1,26.2c0,1.6-1.4,3.2-2.1,4.8
			c-10.3,0-20.5,0.1-30.8,0.1c0,10.1,0,20.2,0,30.5c-10.2,0-20.1,0-31,0c0-10.2,0-20.4,0-30.6c-10.1,0-20.3,0-31.1,0
			c0-10.6,0-20.3,0-30c-0.3-0.3-0.6-0.7-0.9-1c-19.3,0-38.7,0-58,0c-0.3,0.3-0.7,0.7-1,1c0,7.9,0.1,15.9-0.1,23.8
			c0,1.8-0.9,3.7-1.4,5.5c-8,0.2-16.1,0.3-24.1,0.5c-1.8,0-3.6,0.2-5.4,0.2c0,8.8,0.1,17.6-0.1,26.4c0,1.5-1.2,3.1-1.8,4.6
			c-9.7,0.1-19.4,0.1-29.1,0.2c0,28.2,0.1,56.4-0.1,84.7c0,4.7,1.2,6.5,6.1,6.2c6.1-0.4,12.3-0.2,18.4,0c1.6,0.1,3.1,1.2,4.6,1.8
			l0.1,0.1c0.6,1.5,1.8,3.1,1.8,4.6c0.2,6.8,0.2,13.6,0.1,20.4c-0.1,3,1.1,4.2,4.1,4.1c6.8-0.1,13.6-0.1,20.4,0.1
			c1.5,0,3.1,1.2,4.6,1.8c0,10.4,0,20.8,0,31.1c10.3,0,20.7,0,31,0c0,10.9,0,20.9,0,31c10.2,0,20.5,0,31,0c0,10.8,0,20.9,0,31
			c10.2,0,20.5,0,31,0c0,10.8,0,20.9,0,31c10.4,0,20.7,0,31.1,0c0-10.2,0-20.5,0-31c11,0,21,0,31,0c0-10.2,0-20.4,0-31
			c10.9,0,20.9,0,31,0c0-10.2,0-20.5,0-31c11.4,0,21.7,0,32,0c0-10.2,0-20.4,0-31c10.5,0,20.7,0,31,0c0-10.4,0-20.8,0-31.2
			C355.8,202.4,366.1,202.4,376.5,202.5z"/>
	</g>
	<path class="st12" d="M375.8,79.7c-0.4-0.4-0.9-0.7-1.3-1.1C374.9,78.9,375.4,79.3,375.8,79.7z"/>
	<path class="st12" d="M344.7,48.6c-0.4-0.4-0.8-0.7-1.2-1.1C343.9,47.9,344.3,48.2,344.7,48.6z"/>
	<path class="st14" d="M65.6,109.5c-9.7,0.1-19.4,0.1-29.1,0.2c-0.3-0.2-0.6-0.2-0.9-0.1c-0.2-0.3-0.4-0.3-0.7-0.2
		c-0.1-10.3-0.3-20.7-0.4-31c10.3,0,20.7,0,31,0.1c0,0-0.1-0.1-0.1-0.1C65.5,88.8,65.5,99.2,65.6,109.5z"/>
	<path class="st12" d="M35.6,109.7c0.3-0.1,0.6-0.1,0.9,0.1c0,28.2,0.1,56.4-0.1,84.7c0,4.7,1.2,6.5,6.1,6.2
		c6.1-0.4,12.3-0.2,18.4,0c1.6,0.1,3.1,1.2,4.6,1.8c-10.4,0-20.7,0.1-31.1,0.1c0.1-23.9,0.1-47.8,0.2-71.7c0-6.5,0.1-12.9,0.2-19.4
		C35.1,110.8,35.4,110.3,35.6,109.7z"/>
	<path class="st15" d="M31.5,78.1c0.9-0.2,1.8-0.4,2.7-0.6c0.1,0.4,0.2,0.7,0.3,1.1C33.5,78.4,32.5,78.2,31.5,78.1z"/>
	<path class="st16" d="M97,77.8c-8,0.2-16.1,0.3-24.1,0.5c-1.8,0-3.6,0.2-5.4,0.2c-0.7,0-1.4-0.1-2-0.1c0,0,0.1,0.1,0.1,0.1
		c0-10.3,0-20.7,0-31c10.5,0,20.9,0,31.4,0C96.9,57.6,97,67.7,97,77.8z"/>
	<path class="st15" d="M36.6,46.8c9.6-0.1,19.1-0.2,28.7-0.3c0.1,0.3,0.2,0.7,0.3,1C55.9,47.3,46.2,47.1,36.6,46.8z"/>
	<path class="st15" d="M217.5,78.1c1-0.2,1.9-0.4,2.9-0.6c0,0.3,0,0.7,0.1,1c0,0,0.1-0.1,0.1-0.1C219.5,78.3,218.5,78.2,217.5,78.1z
		"/>
	<path class="st15" d="M285.5,295.7c-0.3,0-0.7,0-1,0C284.8,295.7,285.2,295.7,285.5,295.7z"/>
	<path class="st12" d="M65.6,202.5c0.6,1.5,1.8,3.1,1.8,4.6c0.2,6.8,0.2,13.6,0.1,20.4c-0.1,3,1.1,4.2,4.1,4.1
		c6.8-0.1,13.6-0.1,20.4,0.1c1.5,0,3.1,1.2,4.6,1.8c-10.4,0-20.7,0.1-31.1,0.1C65.5,223.2,65.5,212.8,65.6,202.5z"/>
	<path class="st3" d="M189.5,78.4c1-0.1,2-0.2,3-0.3c8.3,0,16.6,0,24.9,0c1,0.1,2,0.2,3,0.4c0,10.1,0,20.2,0,30.6
		c-10.2,0-20.1,0-31,0C189.5,98.9,189.5,88.7,189.5,78.4z"/>
	<path class="st17" d="M65.4,78.5c0.7,0,1.4,0.1,2,0.1c0,8.8,0.1,17.6-0.1,26.4c0,1.5-1.2,3.1-1.8,4.6
		C65.5,99.2,65.5,88.8,65.4,78.5z"/>
</g>
</svg>
