<?xml version="1.0" encoding="UTF-8"?>
<svg xmlns="http://www.w3.org/2000/svg" viewBox="0 0 1920 272.99">
  <path color="currentColor" d="M110.64,54.18v54.89H1.17V54.27c36.57,.05,73.13,.1,109.7,.14l-.23-.23Z"/>
  <path color="currentColor" d="M110.88,54.41V0H1918.83V108.67h-54.14v54.94h-54.65v54.94h-54.93v54.36h-383.74v-54.04h-54.65v-54.65h-54.65v-54.59h-109.74v53.89h-54.93v54.94h-54.65v54.55h-383.74v-54.04h-54.65v-54.65h-54.93v-54.94h-54.65V54.18c-128.64,0-256.39,0-384.14,0,0,0,.23,.23,.23,.23Zm1369.89,109.34c18.33,0,36.67,0,55,0v54.4h54.12v-54.17h-54.35v-54.79h-54.79V54.84h-54.55c0,18.49,0,36.42,0,54.35-18.36,0-36.72,0-55.07-.01V54.81h-54.08v54.14c18.49,0,36.4,0,54.31,0v54.82h54.83v54.36h54.58v-54.36Zm-712.45,0c18.33,0,36.67,0,55,0v54.4h54.12v-54.17h-54.35v-54.79h-54.79V54.84h-54.55c0,18.49,0,36.42,0,54.35-18.36,0-36.72,0-55.07-.01V54.81h-54.08v54.13c18.49,0,36.4,0,54.31,0v54.82c18.93,0,36.88,0,54.82,0v54.36h54.58v-54.36Z"/>
  <path color="currentColor" d="M768.54,164h-55.03v-55.03c18.34,0,36.69,0,55.03,0,0,18.34,0,36.69,0,55.03Z"/>
  <path color="currentColor" d="M1480.98,164h-55.03v-55.03h55.03v55.03Z"/>
</svg>