<?xml version="1.0" encoding="UTF-8"?>
<svg id="a" data-name="Layer 1" xmlns="http://www.w3.org/2000/svg" viewBox="0 0 296.07 470.47">
  <path d="M61.58,269.6c4.54-.48,9.08-.97,15.36-1.63V117.67c6.42-.93,11.23-1.62,16.62-2.4,.66-5.17,1.27-10.01,1.97-15.45h31.45c.74,4.93,1.46,9.71,2.28,15.22,4.73,.76,9.6,1.53,15.8,2.53v65.83h32.69c1.1,6.22,1.96,11.07,3.01,16.99h47.5c1,5.75,1.82,10.53,2.95,17h31.24c.66,6.1,1.15,10.56,1.74,16.01,4.88,.7,9.7,1.38,15.1,2.15,.62,5.06,1.21,9.89,1.85,15.08,4.98,.66,9.48,1.25,14.94,1.97v116.38c-4.54,.7-9.32,1.43-15.44,2.37v49.16c-6.64,.34-11.96,.62-17.28,.89,0,0,.26,.27,.26,.27v-51.12c6.02-.74,10.81-1.32,15.73-1.92v-115.27c-5.57-.87-10.41-1.63-15.35-2.41-.49-5.19-.92-9.65-1.39-14.55h-16.35v65.06h-17.25v-82.51h-33.05v66.26h-17.26v-83.02h-33.76v65.98h-17.26V117.68h-33.11v183.93h-16.22c-.54-5.34-1-9.81-1.51-14.8-5.41-.74-10.24-1.4-16.28-2.22,.46-5.51,.86-10.38,1.27-15.26l-.24,.26Z"/>
  <path d="M263.35,421.4v49.06H94.95v-49.04l-.25,.22h17.38v31.88H247.02v-32.83c6.59,.39,11.59,.68,16.59,.97l-.26-.27Z"/>
  <path d="M94.95,421.43h-16.51c-.51-11.26-.97-21.6-1.46-32.54-5.22-1.01-10.01-1.93-16.36-3.16v-31.67c-5.96-.67-10.39-1.17-16.39-1.85-.49-10.25-.98-20.56-1.51-31.64-5.02-.78-9.83-1.52-15.28-2.36-.61-4.53-1.21-9-1.94-14.42-4.54-.69-9.34-1.43-15.06-2.3v-48.71H60.26c.47,6.01,.9,11.41,1.32,16.81,0,0,.24-.26,.24-.26H27.87v31.98c5.63,.8,10.44,1.48,15.16,2.15,.95,5.61,1.76,10.37,2.54,14.94,5.4,.65,9.82,1.19,15.82,1.92v31.52c6.1,.7,10.54,1.21,16.47,1.89v31.47c6.38,1.11,11.22,1.96,16.85,2.94v33.51l.25-.22Z"/>
  <path d="M103.47,81.58V0h15.5V81.58h-15.5Z"/>
  <path d="M16.32,66.22c.51,5.22,.95,9.67,1.47,14.91,4.62,.66,8.97,1.29,13.85,1.99,.7,4.88,1.33,9.32,2.08,14.55,4.71,.89,9.49,1.79,14.96,2.82,.76,4.88,1.51,9.7,2.32,14.88,4.87,.64,9.35,1.23,14.72,1.93v15.46h-15.3c-.81-4.82-1.62-9.65-2.53-15.07-4.81-.54-9.26-1.04-14.38-1.61-.91-4.98-1.79-9.77-2.8-15.31-4.5-.54-8.94-1.07-14.22-1.71-.81-4.94-1.6-9.72-2.49-15.13-4.34-.81-8.67-1.61-12.81-2.38q-2.53-16.83,15.12-15.32Z"/>
  <path d="M174.57,118.27c-.69,5.08-1.3,9.57-1.99,14.68h-15.65v-15.5c5.08-.71,9.52-1.33,14.67-2.06,.84-4.86,1.67-9.64,2.61-15.05,4.54-.7,8.98-1.38,14.29-2.19,.86-4.56,1.76-9.35,2.82-14.98,4.31-.66,8.66-1.32,13.63-2.08,.48-4.76,.94-9.22,1.5-14.75h15.89c.22,4.59,.45,9.35,.72,14.92-5.2,.94-9.56,1.73-14.35,2.6-.6,4.66-1.18,9.15-1.87,14.51-4.67,.84-9.46,1.71-14.98,2.7-.63,4.4-1.27,8.83-2.04,14.19-4.96,.98-10.11,1.99-15.24,3Z"/>
</svg>