<?xml version="1.0" encoding="utf-8"?>
<!-- Generator: Adobe Illustrator 26.0.1, SVG Export Plug-In . SVG Version: 6.00 Build 0)  -->
<svg version="1.1" id="Layer_1" xmlns="http://www.w3.org/2000/svg" xmlns:xlink="http://www.w3.org/1999/xlink" x="0px" y="0px"
	 viewBox="0 0 24 24" style="enable-background:new 0 0 24 24;" xml:space="preserve">
<g id="Layer_1_00000013189198407605598220000002630086399544872380_">
	<path d="M11.6,2.5c0-0.1,0-0.1-0.1-0.1c-0.3,0-0.6,0-0.9,0c-0.1,0-0.1,0-0.1,0.1v0.1c0,0.3,0,0.5,0,0.8v0.1c0,0,0,0.1-0.1,0.1l0,0
		h-0.1c-0.2,0-0.5,0-0.7,0c-0.1,0-0.2,0-0.2,0c-0.1,0.1,0,0.1,0,0.2c0,0.3,0,0.5,0,0.8c0,0.1,0,0.1-0.1,0.1H9.2c-0.3,0-0.5,0-0.8,0
		c-0.1,0-0.1,0-0.1,0.1c0,0.2,0,0.4,0,0.7c0,0.1,0,0.1,0,0.2s0,0.1-0.1,0.1H8.1c-0.3,0-0.5,0-0.8,0C7,5.9,7,5.9,7,6
		c0,0.3,0,0.6,0,0.8v0.1C7,7,6.9,7,6.9,7C6.8,7,6.8,7,6.7,7H0.2C0,7,0,7,0,7.3c0,3.3,0,6.6,0,9.9c0,0.2,0,0.2,0.2,0.2h6.5h0.1
		c0.1,0,0.1,0,0.1,0.1v0.1c0,0.3,0,0.5,0,0.8c0,0.2,0,0.2,0.2,0.2s0.5,0,0.7,0c0.3,0,0.2,0,0.2,0.2c0,0.3,0,0.5,0,0.8
		c0,0.1,0,0.2,0.2,0.2s0.3,0,0.5,0c0.1,0,0.3,0,0.4,0c0.1,0,0.1,0,0.1,0.1V20c0,0.3,0,0.5,0,0.8c0,0.1,0,0.1,0.1,0.1
		c0.3,0,0.5,0,0.8,0h0.1c0,0,0.1,0,0.1,0.1v0.1c0,0.3,0,0.6,0,0.8c0,0.1,0,0.1,0.1,0.1c0.3,0,0.6,0,0.9,0c0,0,0,0,0.1,0
		c0,0,0.1,0,0.1-0.1s0-0.1,0-0.2v-19C11.6,2.7,11.6,2.6,11.6,2.5z M10.4,6.9c0,0.1,0,0.1-0.1,0.1C10,7,9.8,7,9.5,7S9.3,7,9.3,7.3
		s0,0.5,0,0.8c0,0.2,0,0.2-0.2,0.2h-1c0,0.3,0,0.6,0,0.9c0,0.1,0,0.1,0,0.2c0,0,0,0.1-0.1,0.1l0,0H7.9H3.7c-0.2,0-0.2,0-0.2-0.2
		c0-0.3,0-0.5,0-0.8V8.4c0,0,0-0.1,0.1-0.1h0.1c1.4,0,2.9,0,4.3,0h0.1v-1V7.2c0-0.1,0-0.1,0.1-0.1h0.1c0.3,0,0.5,0,0.8,0
		c0.2,0,0.2,0,0.2-0.2c0-0.3,0-0.5,0-0.8V6c0-0.1,0-0.1,0.1-0.1c0.3,0,0.6,0,0.9,0c0.1,0,0.1,0,0.1,0.1C10.4,6.3,10.4,6.6,10.4,6.9z
		"/>
	<path d="M22.7,9.4c0.3,0,0.7,0,1,0c0.1,0,0.1,0,0.1-0.1c0-0.3,0-0.7,0-1c0-0.1,0-0.1-0.1-0.1c-0.2,0-0.3,0-0.5,0s-0.3,0-0.5,0
		c-0.1,0-0.1,0-0.1,0.1c0,0.3,0,0.7,0,1C22.6,9.4,22.6,9.4,22.7,9.4z"/>
	<path d="M16.2,9.5c0-0.3,0-0.7-0.1-1c0-0.1,0-0.1-0.1-0.1c-0.3,0-0.7,0-1,0.1c-0.1,0-0.1,0-0.1,0.1c0,0.2,0,0.3,0,0.5s0,0.3,0,0.5
		c0,0.1,0,0.1,0.1,0.1c0.3,0,0.7,0,1-0.1C16.2,9.6,16.2,9.6,16.2,9.5z"/>
</g>
<g id="Layer_2_00000179614502495302775930000017321550740226036372_">
	<path d="M22.7,16c0-0.1,0-0.1,0-0.2c0-2.5,0-5,0-7.5c0-0.2,0-0.2,0.2-0.2c0.3,0,0.5,0,0.8,0c0.1,0,0.1,0,0.1,0.1v0.1
		c0,2.5,0,4.9,0,7.4c0,0.3,0,0.2-0.3,0.3C23.3,16,23,16,22.7,16L22.7,16z"/>
	<path d="M20.2,12c0,1.2,0,2.5,0,3.7c0,0.3,0,0.2-0.2,0.2c-0.3,0-0.5,0-0.8,0C19,16,19,16,19,15.8v-0.1c0-2.5,0-5,0-7.5
		C19,8,19,8,19.3,8c0.2,0,0.5,0,0.7,0c0.1,0,0.1,0,0.1,0.1v0.1L20.2,12z"/>
	<path d="M15.3,12c0-0.9,0-1.8,0-2.6c0-0.2,0-0.2-0.2-0.2s-0.5,0-0.7,0c-0.1,0-0.1,0-0.1-0.1c0-0.3,0-0.6,0-0.9c0-0.1,0-0.1,0.1-0.1
		c0.3,0,0.6,0,0.9,0c0.1,0,0.1,0,0.1,0.1c0,0.3,0,0.5,0,0.8c0,0,0,0,0,0.1s0,0.1,0.1,0.1c0.2,0,0.5,0,0.7,0h0.1c0.1,0,0.1,0,0.1,0.1
		v0.1c0,1.8,0,3.5,0,5.3c0,0.2,0,0.2-0.2,0.2s-0.5,0-0.7,0c-0.1,0-0.1,0-0.1,0.1c0,0.3,0,0.6,0,0.8v0.1c0,0,0,0.1-0.1,0.1l0,0
		c-0.3,0-0.6,0-0.9,0c-0.1,0-0.1,0-0.1-0.1c0-0.3,0-0.6,0-0.9c0-0.1,0-0.1,0.1-0.1c0.2,0,0.5,0,0.7,0h0.1c0.1,0,0.1,0,0.1-0.1v-0.1
		L15.3,12z"/>
	<path d="M22.7,16c0,0.1,0,0.1,0,0.2c0,0.6,0,1.3,0,1.9c0,0.2,0,0.2-0.2,0.2c-0.3,0-0.5,0-0.8,0h-0.1c0,0-0.1,0-0.1-0.1v-0.1v-1.9
		c0-0.1,0-0.1,0.2-0.1c0.3,0,0.5,0,0.8,0C22.6,16,22.6,16,22.7,16L22.7,16z"/>
	<path d="M17.9,16.5c0-0.2,0-0.3,0-0.5c0-0.1,0-0.1,0.1-0.1c0.3,0,0.6,0,0.9,0c0.1,0,0.1,0,0.1,0.1c0,0.3,0,0.6,0,0.9
		c0,0.1,0,0.1-0.1,0.1c-0.3,0-0.5,0-0.8,0c-0.2,0-0.2,0-0.2,0.2s0,0.5,0,0.7V18c0,0,0,0.1-0.1,0.1l0,0h-0.1H17c0,0,0,0-0.1,0
		c0,0-0.1,0-0.1-0.1c0,0,0,0,0-0.1c0-0.3,0-0.6,0-0.9c0-0.1,0-0.1,0.1-0.1c0.3,0,0.5,0,0.8,0c0.2,0,0.2,0,0.2-0.2
		C17.9,16.8,17.9,16.7,17.9,16.5L17.9,16.5z"/>
	<path d="M21.6,6.9V6V5.9c0,0,0-0.1,0.1-0.1s0.2,0,0.4,0c0.2,0,0.4,0,0.6,0c0.1,0,0.1,0,0.1,0.1s0,0.2,0,0.2c0,0.6,0,1.1,0,1.7v0.1
		c0,0.1,0,0.1-0.1,0.1c-0.2,0-0.4,0-0.5,0S22,8,21.8,8c-0.1,0-0.1,0-0.1-0.1c0-0.3,0-0.6,0-0.9L21.6,6.9z"/>
	<path d="M21,4.6c0.1,0,0.3,0,0.4,0s0.1,0,0.1,0.1c0,0.3,0,0.6,0,0.9c0,0.1,0,0.1-0.1,0.1c-0.3,0-0.6,0-0.9,0c-0.1,0-0.1,0-0.1-0.1
		c0-0.3,0-0.6,0-0.9c0-0.1,0-0.1,0.1-0.1C20.7,4.6,20.8,4.6,21,4.6z"/>
	<path d="M17.9,7.5c0-0.1,0-0.3,0-0.4c0-0.2,0-0.2,0.2-0.2s0.5,0,0.7,0c0.1,0,0.1,0,0.2,0c0,0,0,0,0,0.1c0,0.2,0,0.4,0,0.6
		c0,0.1,0,0.2,0,0.2C19,8,19,8,18.9,8c-0.2,0-0.5,0-0.7,0c-0.1,0-0.1,0-0.2,0s-0.1,0-0.1-0.1C17.9,7.8,17.9,7.6,17.9,7.5L17.9,7.5
		L17.9,7.5z"/>
	<path d="M21,18.2c0.2,0,0.3,0,0.5,0c0.1,0,0.1,0,0.1,0.1c0,0.3,0,0.6,0,0.9c0,0.1,0,0.1-0.1,0.1c-0.3,0-0.6,0-0.9,0
		c-0.1,0-0.1,0-0.1-0.1c0-0.3,0-0.6,0-0.9c0-0.1,0-0.1,0.1-0.1S20.8,18.2,21,18.2z"/>
	<path d="M17.3,6.9c-0.1,0-0.3,0-0.4,0s-0.1,0-0.1-0.1c0-0.3,0-0.6,0-0.9c0-0.1,0-0.1,0.1-0.1c0.3,0,0.6,0,0.9,0
		c0.1,0,0.1,0,0.1,0.1c0,0.3,0,0.6,0,0.9c0,0.1,0,0.1-0.1,0.1C17.6,6.9,17.5,6.9,17.3,6.9z"/>
</g>
</svg>
