<?xml version="1.0" encoding="utf-8"?>
<!-- Generator: Adobe Illustrator 26.0.1, SVG Export Plug-In . SVG Version: 6.00 Build 0)  -->
<svg version="1.1" id="Layer_1" xmlns="http://www.w3.org/2000/svg" xmlns:xlink="http://www.w3.org/1999/xlink" x="0px" y="0px"
	 viewBox="0 0 231.2 152.1" style="enable-background:new 0 0 231.2 152.1;" xml:space="preserve">
<style type="label/css">
	.st0{fill:#FFFFFF;}
</style>
<path class="st0" d="M34.8,152c-9.1,0-18.3,0-27.5,0c-5.4,0-7.2-1.7-7.3-7.1c-0.1-16.5-0.1-33,0-49.4c0-5.5,8.6-13.6,14.2-13.7
	c13.7-0.1,27.3-0.1,41,0c6,0,14.3,8.2,14.4,14.2c0.1,16.1,0.1,32.3-0.1,48.4c-0.1,6.3-1.6,7.6-7.8,7.6C52.8,152.1,43.8,152,34.8,152
	z M34.5,132.2c6.7,0,13.3-0.1,20,0.1c3.3,0.1,4.8-0.7,4.8-4.4c-0.2-13.2-0.2-26.3,0-39.5c0-3.3-1-4.4-4.3-4.4
	c-13.5,0.1-27,0.1-40.5,0c-3.4,0-4.3,1.3-4.3,4.4c0.1,13.2,0.1,26.3,0,39.5c0,3.3,1.2,4.4,4.4,4.3C21.1,132.1,27.8,132.2,34.5,132.2
	z M65.7,149.8c-2.3-5.1-4.2-9.4-6.1-13.8c-0.7-1.5-1.8-1.6-3.2-1.6c-14.3,0.1-28.7,0.1-43,0c-1.4,0-2.6,0-3.2,1.6
	c-1.8,4.6-4.5,8.8-5.8,13.8L65.7,149.8z M2.3,145.6c2.8-4.2,6.6-8.4,6.2-13c-0.5-6.6-0.2-13.2-0.4-19.9c-0.2-8.1,0-16.1,0-25.1
	c-3.1,2.7-5.8,4.3-5.8,8.1C2.3,112.3,2.3,128.9,2.3,145.6z M66.4,145.6c0.5-0.6,0.8-0.9,0.8-1.1c0-16.3,0-32.6,0.1-48.9
	c0-3.7-2.3-5.4-5-7.2c-1.3,1.8-0.8,3.4-0.8,5c0,11.3,0.6,22.7-0.3,33.9C60.7,134.4,63.9,139.5,66.4,145.6L66.4,145.6z"/>
<path class="st0" d="M115.5,70.3c-9.2,0-18.3,0-27.5,0c-5.3,0-7-1.6-7-6.8C81,47,81,30.5,81,14c0-5.5,8.5-13.9,14.1-14
	c13.7-0.1,27.3-0.1,41,0c5.8,0,14.3,8.4,14.3,14.2c0.1,16,0.1,32,0,48c0,6-2.2,8-8.3,8L115.5,70.3z M140,26.5L140,26.5
	c0-6.7-0.1-13.3,0.1-20c0.1-3.2-1.1-4.5-4.3-4.4c-13.5,0.1-26.9,0.1-40.4,0c-3.3,0-4.4,1.2-4.4,4.4c0.1,13.3,0.1,26.6,0,39.9
	c0,3,1.2,4.2,4.1,4.2c13.6,0,27.3,0,40.9,0c2.9,0,4.2-1.2,4.1-4.2C139.9,39.8,140,33.2,140,26.5z M84.9,67.9h61.6L139.8,53
	c-15.3,0-30.6,0-45.9,0c-1.3-0.2-2.6,0.6-3.1,1.8C89,59,87,63.2,84.9,67.9z M83.2,63.7c3.1-5.2,6.3-10,5.9-16.7
	c-0.7-13.3-0.2-26.8-0.2-40.9c-3.4,2.6-5.9,4.5-5.8,8.7C83.3,31.1,83.2,47.4,83.2,63.7z M148.1,63.4c0-16.1-0.1-32.2,0.1-48.3
	c0.1-4.3-1.9-6.5-5.9-8.8c0,13.4,0.6,26-0.2,38.6C141.6,52,144.4,57.6,148.1,63.4z"/>
<path class="st0" d="M115.5,152c-9,0-18,0-27,0c-5.8,0-7.5-1.6-7.6-7.3c-0.1-16.3-0.1-32.7,0-49c0-6.1,7.7-14,13.7-14
	c13.8-0.1,27.6-0.1,41.5,0c5.9,0,14.1,8.4,14.2,14.3c0.1,16.2,0.1,32.3,0,48.4c0,6.2-1.5,7.5-7.8,7.5
	C133.5,152.1,124.5,152,115.5,152z M115.5,84c-6.7,0-13.3,0.2-20-0.1c-3.6-0.1-4.6,1.2-4.5,4.6c0.1,13.1,0.1,26.3,0,39.4
	c0,3.4,1.3,4.2,4.4,4.2c13.5-0.1,26.9-0.1,40.4,0c3.3,0,4.3-1.1,4.3-4.4c-0.1-13.1-0.2-26.3,0-39.4c0.1-3.6-1.3-4.6-4.7-4.5
	C128.8,84.1,122.1,84,115.5,84L115.5,84z M139.7,134.5c-15.2,0-30.1,0-45.1,0c-1.2,0-2.7-0.6-3.4,1.1c-2,4.6-4.1,9.2-6.2,13.8h61.5
	C144,144.1,141.8,139.3,139.7,134.5L139.7,134.5z M83.1,147.1c5.6-10.2,5.8-11,5.7-20.4c0-12.7,0-25.4,0-38.6
	c-3.6,1.7-5.7,3.7-5.7,7.2C83.1,112.1,83.1,128.9,83.1,147.1L83.1,147.1z M148.1,146.6c0-18.2,0.1-35.1-0.1-52
	c0-3.3-2.7-4.8-5.8-6.5c0,12.6,0.5,24.6-0.2,36.5c-0.5,7.7,1.4,14.3,5.9,22L148.1,146.6z"/>
<path class="st0" d="M229,133.9c0-12-0.2-23.9,0.1-35.8c0.1-4.6-1.3-7.7-6-9.9c0,4.6,0.1,9,0,13.4c-0.3,10.3,0.2,20.6-0.3,30.9
	c-0.2,4.7,3.4,8.8,5.6,13.9c1.3-4.2-0.3-8,1.8-11.3c1,4.6,1.5,9.2,0.2,13.8c-0.6,2.3-2.6,3.2-5.1,3.2c-19.3,0-38.6,0-57.9,0
	c-3.7,0-5.5-2.2-5.6-5.7c-0.1-17.5-0.1-35,0.1-52.4c0-4.3,9-12.1,13.6-12.1c14-0.1,28-0.1,42,0c4.7,0,13.5,8.3,13.6,12.8
	c0.1,12,0,24,0,36C231.1,131.9,231.2,133.3,229,133.9z M196.1,132.2L196.1,132.2c6.8,0,13.7-0.1,20.5,0c3.2,0.1,4.4-1.2,4.4-4.4
	c-0.1-13.2-0.1-26.3,0-39.5c0-3.2-1-4.4-4.3-4.4c-13.5,0.1-27,0.1-40.5,0c-3.3,0-4.3,1.2-4.3,4.4c0.1,13.2,0.2,26.3,0,39.5
	c0,3.7,1.4,4.5,4.7,4.4C183.1,132,189.6,132.2,196.1,132.2L196.1,132.2z M220.6,134.5h-48.2c-2.2,4.9-4.4,9.8-6.8,15.2h61.6
	L220.6,134.5z M169.6,87.9c-4.1,2.7-5.9,5.4-5.7,9.8c0.3,11.1,0.1,22.3,0.1,33.4v14.5c3.6-6,6.4-11.7,5.9-19.1
	C169,114,169.6,101.4,169.6,87.9z"/>
<path class="st0" d="M26.6,107.9L42,99.2v17.6C36.6,114.4,32,111.3,26.6,107.9z"/>
<path class="st0" d="M124.6,33.8h-18.1l9.1-15.6C118.8,23.7,121.5,28.5,124.6,33.8z"/>
<path class="st0" d="M106.5,100.6h18.2l-9.2,15.8C112.3,110.9,109.6,106.1,106.5,100.6z"/>
<path class="st0" d="M189,116.9V99.1l15.2,8.7C199.4,111.5,194.6,113.9,189,116.9z"/>
</svg>
