<svg id="Layer_1" data-name="Layer 1" xmlns="http://www.w3.org/2000/svg" viewBox="0 0 595.28 624.37"><defs><style>.cls-1{fill:#fff;}</style></defs><path class="cls-1" d="M307.69,533.12l19.8-9.82c2.28,4.48,4.51,8.77,6.65,13.1,3.9,7.94,7.7,15.94,11.65,23.86,1.54,3.11,2.86,3.09,6.15,1.23,5.07-2.86,10.31-5.42,15.8-8.27,6.69,13.49,13.23,26.67,20,40.36L560,508.4C555.92,500,552,492,548.07,484c-2.27-4.6-4.72-9.11-7-13.7-.85-1.69-.34-2.65,1.54-3.51,5.83-2.67,11.53-5.64,17.43-8.56l-29.64-60,19.43-9.62c1.93,3.74,3.88,7.37,5.71,11.06Q563.78,416.31,572,433c2.22,4.48,4.59,8.91,6.6,13.48a3.52,3.52,0,0,1-1.21,3.23c-4.74,2.55-9.62,4.84-14.5,7.12-2.09,1-2.65,1.69-1.38,4.21,9.32,18.47,18.36,37.08,27.53,55.63.82,1.66.9,2.54-1.12,3.52-15.38,7.47-30.67,15.1-46,22.66-16.37,8.08-32.77,16.1-49.14,24.19-12.37,6.12-24.68,12.36-37.05,18.48-10.65,5.26-21.35,10.41-32,15.66-12.13,6-24.23,12-36.34,18-.95.47-1.9.92-2.85,1.36-7.05,3.26-7,3.23-10.53-3.93q-11-22.4-22.17-44.73c0-.11-.13-.2-.18-.31-3.88-7.88-3.88-7.88-11.89-3.92-2.91,1.44-6,2.53-8.66,4.38-3.21,2.26-4.17.36-5.33-2-2.64-5.45-5.34-10.87-8-16.3C314.43,547,311.16,540.24,307.69,533.12Z"/><path class="cls-1" d="M162,189.12c3.64,7.39,7.08,14.42,10.57,21.42,6.15,12.35,12.38,24.66,18.49,37,5.33,10.78,10.5,21.63,15.81,32.42,7.33,14.9,14.74,29.75,22.09,44.63q12.3,24.92,24.57,49.83c6.79,13.72,13.67,27.39,20.47,41.1,6,12.1,11.93,24.23,17.89,36.35.82,1.66,1.7,3.29,2.48,5,2.25,4.83,2.26,4.9-2.52,7.38-4.23,2.2-8.59,4.15-12.79,6.4-1.88,1-2.46.1-3.18-1.35-4.66-9.45-9.4-18.87-14.07-28.33-6-12.19-12-24.41-18-36.61-1.05-2.13-1.94-3.55-4.94-1.74-4.46,2.72-9.46,4.55-14.15,6.92-1.63.83-2.51.72-3.31-1-2.39-5.14-4.71-10.32-7.39-15.31-1-1.87-.81-2.33,1-3.2,5.71-2.68,11.29-5.62,17.2-8.61-3.44-7-6.79-13.76-10.12-20.53q-9-18.3-18.07-36.62c-5.37-10.81-10.85-21.57-16.21-32.38-6.6-13.32-13.12-26.67-19.69-40Q157,229.36,145.92,206.82c-.57-1.16-1.09-2.34-1.65-3.5-2.24-4.7-2.2-4.64,2.45-6.79C151.7,194.22,156.59,191.74,162,189.12Z"/><path class="cls-1" d="M312.21,340.76c-5.73,3-11.31,6-17,8.68-.74.35-2.85-.57-3.28-1.42-8.84-17.8-17.47-35.7-26.25-53.52-6.75-13.68-13.71-27.26-20.46-40.94-8-16.23-15.9-32.53-23.86-48.79Q213.2,188.2,205,171.65c-.46-.94-.89-1.9-1.56-3.33l19.29-9.53c3.89,7.81,7.65,15.32,11.38,22.85q10.29,20.76,20.55,41.55c2.34,4.72,4.84,9.38,7,14.19,1,2.26,2.21,2,3.88,1.18l40.84-20.36c.63-.31,1.31-.5,1.94-.79,5.78-2.7,5.8-2.71,8.6,2.9,2.12,4.23,4.1,8.53,6.27,12.73,1.13,2.17-.59,2.77-1.78,3.39-4.6,2.39-9.28,4.62-13.94,6.89q-16.14,7.88-32.27,15.74c-1.66.81-2.36,1.61-1.25,3.81,12.26,24.47,24.34,49,36.46,73.57C311,337.69,311.48,339,312.21,340.76Z"/><path class="cls-1" d="M454.17,295.89c-6.05,3.05-11.79,5.93-17.52,8.84-1.69.86-2.47.18-3.24-1.38-4.68-9.57-9.46-19.1-14.2-28.64-7.73-15.53-15.53-31-23.1-46.61-1.12-2.3-2.22-2.31-4-1.41q-13.84,6.85-27.69,13.73c-3.5,1.73-7,3.52-10.72,5.42l29.63,59.91-19.12,9.46c-13.18-26.65-26.26-53.1-39.52-79.89l60.09-29.66c2.91,5.72,5.78,11.15,8.42,16.69,1,2.15,2.17,2.29,4.1,1.33,10.57-5.29,21.18-10.5,31.77-15.74,1.66-.83,3.33-1.65,5.45-2.69,3.15,6.37,6.35,12.8,9.77,19.71l-20.09,10.13Z"/><path class="cls-1" d="M570.54,377.93,550.35,388c-1.76-3.37-3.63-6.83-5.37-10.35Q528,343.5,511.18,309.32c-6.65-13.48-13.21-27-19.84-40.49-5-10.28-10.21-20.52-15.18-30.85-1-2-2.13-1.74-3.64-1l-17.21,8.51L445,225.44c3.48-1.79,7.07-3.66,10.68-5.47,2-1,4.21-1.65,6-2.93,2.85-2.08,3.9-1,5,1.81,1.79,4.32,4,8.47,6,12.7,1.63,3.42,4,4.08,7.56,2.21,4.94-2.58,9.9-5.1,15.16-7.81Z"/><path class="cls-1" d="M196.89,462l19.21-9.42L226,472.6c-5.81,2.79-11.38,5.09-16.54,8.1-2.52,1.47-3.13.71-4.11-1.3-2.39-5-5-9.82-7.3-14.83-1-2.22-2.11-2.39-4.1-1.37-4.58,2.35-9.41,4.28-13.82,6.91-2.77,1.66-4,.82-5.14-1.53-3.69-7.55-7.35-15.11-11-22.65q-10.17-20.67-20.38-41.31c-.46-.93-.84-1.88-1.44-3.24l60.5-29.94c3.2,6.44,6.28,12.67,9.61,19.38l-11.89,5.86q-13.47,6.68-26.94,13.37c-2.34,1.17-1,2.72-.28,4.12q4.29,8.86,8.64,17.72,7,14.25,14.16,28.45C196.13,460.85,196.48,461.31,196.89,462Z"/><path class="cls-1" d="M6.42,185.75c0-6.88.1-13.37,0-19.86-.06-3.13,2-2.62,3.83-2.63H95.5v22.5Z"/><path class="cls-1" d="M164.75,97.67v-3.8c0-26.94.05-53.89-.07-80.83,0-3.06.73-4.15,3.93-4,6.1.25,12.23.07,18.83.07V97.67Z"/><path class="cls-1" d="M267.43,502.55l19.64-9.69c4.37,8.77,8.71,17.47,13,26.19,1.85,3.73,3.47,7.6,5.6,11.17,1.28,2.15.8,3.07-1.18,4-5.51,2.66-11,5.39-17,8.35-2.28-4.63-4.44-9.05-6.61-13.46-3.9-7.89-7.93-15.73-11.67-23.69-1.42-3-3.06-2.72-5.47-1.48-5.51,2.82-11.1,5.49-16.66,8.22a4.21,4.21,0,0,1-.92.05L226.7,472.8l20.85-10.42Z"/><path class="cls-1" d="M257,185.72V163.43c1.32-.06,2.47-.17,3.61-.17,26.57,0,53.15.06,79.72-.08,3.52,0,4.76.81,4.54,4.51-.34,5.88-.09,11.79-.09,18Z"/><path class="cls-1" d="M256.28,75.34h22.6V98.47H256.17v17.79c0,4.89,0,4.89-5,4.9s-9.94.1-14.89-.11c-1,0-2.7-1.28-2.73-2-.21-6.72-.12-13.45-.12-20.78h15.33c7.56,0,7.56,0,7.56-7.67Z"/><path class="cls-1" d="M72.32,75.24H95.07c0,6.37.22,12.49-.08,18.58-.18,3.62.89,4.72,4.54,4.53,6-.32,12-.09,18.18-.09v22.87c-7,0-13.87.08-20.69-.14-.62,0-1.67-2-1.7-3-.16-6.35-.08-12.71-.08-19.47H72.43V75.14Z"/><path class="cls-1" d="M152.35,169c13.79-6.79,27.24-13.43,40.8-20.12l9.5,19.22-27.52,13.52c-3.72,1.83-7.39,3.76-11.17,5.48-.72.32-2.41.14-2.66-.34C158.26,181,155.4,175.16,152.35,169Z"/><path class="cls-1" d="M72.43,75.14H49c0-7.17-.06-14.1.08-21,0-.72,1.17-2,1.82-2,6.94-.15,13.88-.09,21.4-.09V75.24Z"/><path class="cls-1" d="M302.05,52V75H279.38c0-7.11-.05-14.13.09-21.13,0-.64,1.29-1.77,2-1.79C288.26,51.93,295.06,52,302.05,52Z"/><path class="cls-1" d="M72.65,282.78v22.05H49c0-6.91-.06-13.72.08-20.52,0-.72,1.17-2,1.78-2,7.27,0,14.54.3,21.8.5Z"/><path class="cls-1" d="M72.67,282.79V259.52H95.06c0,7.12.06,14-.11,20.93,0,.54-1.61,1.48-2.48,1.5-5.42.13-10.85,0-16.27.09a18.51,18.51,0,0,0-3.55.73Z"/><path class="cls-1" d="M117.67,258.89H95.48V236.47h22.19Z"/></svg>