<?xml version="1.0" encoding="utf-8"?>
<!-- Generator: Adobe Illustrator 26.0.1, SVG Export Plug-In . SVG Version: 6.00 Build 0)  -->
<svg version="1.1" id="Layer_1" xmlns="http://www.w3.org/2000/svg" xmlns:xlink="http://www.w3.org/1999/xlink" x="0px" y="0px"
	 viewBox="0 0 24 24" style="enable-background:new 0 0 24 24;" xml:space="preserve">
<g id="Layer_1_00000059283214915903458300000000863206735705567917_">
	<path d="M11.6,2.5c0-0.1,0-0.1-0.1-0.1c-0.3,0-0.6,0-0.9,0c-0.1,0-0.1,0-0.1,0.1v0.1c0,0.3,0,0.5,0,0.8v0.1c0,0,0,0.1-0.1,0.1l0,0
		h-0.1c-0.2,0-0.5,0-0.7,0c-0.1,0-0.2,0-0.2,0c-0.1,0.1,0,0.1,0,0.2c0,0.3,0,0.5,0,0.8c0,0.1,0,0.1-0.1,0.1H9.2c-0.3,0-0.5,0-0.8,0
		c-0.1,0-0.1,0-0.1,0.1c0,0.2,0,0.4,0,0.7c0,0.1,0,0.1,0,0.2s0,0.1-0.1,0.1H8.1c-0.3,0-0.5,0-0.8,0C7,5.9,7,5.9,7,6
		c0,0.3,0,0.6,0,0.8v0.1C7,7,6.9,7,6.9,7C6.8,7,6.8,7,6.7,7H0.2C0,7,0,7,0,7.3c0,3.3,0,6.6,0,9.9c0,0.2,0,0.2,0.2,0.2h6.5h0.1
		c0.1,0,0.1,0,0.1,0.1v0.1c0,0.3,0,0.5,0,0.8c0,0.2,0,0.2,0.2,0.2s0.5,0,0.7,0c0.3,0,0.2,0,0.2,0.2c0,0.3,0,0.5,0,0.8
		c0,0.1,0,0.2,0.2,0.2s0.3,0,0.5,0c0.1,0,0.3,0,0.4,0c0.1,0,0.1,0,0.1,0.1V20c0,0.3,0,0.5,0,0.8c0,0.1,0,0.1,0.1,0.1
		c0.3,0,0.5,0,0.8,0h0.1c0,0,0.1,0,0.1,0.1v0.1c0,0.3,0,0.6,0,0.8c0,0.1,0,0.1,0.1,0.1c0.3,0,0.6,0,0.9,0c0,0,0,0,0.1,0
		c0,0,0.1,0,0.1-0.1s0-0.1,0-0.2v-19C11.6,2.7,11.6,2.6,11.6,2.5z M10.4,6.9c0,0.1,0,0.1-0.1,0.1C10,7,9.8,7,9.5,7S9.3,7,9.3,7.3
		s0,0.5,0,0.8c0,0.2,0,0.2-0.2,0.2h-1c0,0.3,0,0.6,0,0.9c0,0.1,0,0.1,0,0.2c0,0,0,0.1-0.1,0.1l0,0H7.9H3.7c-0.2,0-0.2,0-0.2-0.2
		c0-0.3,0-0.5,0-0.8V8.4c0,0,0-0.1,0.1-0.1h0.1c1.4,0,2.9,0,4.3,0h0.1v-1V7.2c0-0.1,0-0.1,0.1-0.1h0.1c0.3,0,0.5,0,0.8,0
		c0.2,0,0.2,0,0.2-0.2c0-0.3,0-0.5,0-0.8V6c0-0.1,0-0.1,0.1-0.1c0.3,0,0.6,0,0.9,0c0.1,0,0.1,0,0.1,0.1C10.4,6.3,10.4,6.6,10.4,6.9z
		"/>
	<path d="M17.5,14.3c-0.3,0-0.7,0-1,0c-0.1,0-0.1,0-0.1,0.1c0,0.2,0,0.3,0,0.5l0,0c0,0.1,0,0.3,0,0.4c0,0.2,0,0.2-0.2,0.2
		c-0.3,0-0.6,0-0.8,0c-0.1,0-0.1,0-0.1,0.1c0,0.3,0,0.6,0,0.9c0,0,0,0,0,0.1s0,0.1,0.1,0.1h0.1h0.9h0.1c0,0,0.1,0,0.1-0.1l0,0v-0.1
		c0-0.3,0-0.5,0-0.8s0-0.2,0.2-0.2c0.3,0,0.6,0,0.8,0c0.1,0,0.1,0,0.1-0.1c0-0.3,0-0.7,0-1C17.6,14.3,17.6,14.3,17.5,14.3z"/>
	<path d="M20.1,11.7C20.1,11.8,20.1,11.8,20.1,11.7c0.1,0.1,0.1,0.1,0.2,0.1c0.3,0,0.6,0,0.9,0h0.1c0,0,0.1,0,0.1-0.1l0,0v-0.1
		c0-0.3,0-0.5,0-0.8s0-0.2,0.2-0.2c0.3,0,0.6,0,0.8,0c0.1,0,0.1,0,0.1-0.1c0-0.3,0-0.7,0-1c0-0.1,0-0.1-0.1-0.1c-0.3,0-0.7,0-1,0
		c-0.1,0-0.1,0-0.1,0.1c0,0.2,0,0.3,0,0.5l0,0c0,0.1,0,0.3,0,0.4c0,0.2,0,0.2-0.2,0.2c-0.3,0-0.6,0-0.8,0c-0.1,0-0.1,0-0.1,0.1
		C20.1,11,20.1,11.4,20.1,11.7L20.1,11.7z"/>
	<path d="M22.7,9.4c0.3,0,0.7,0,1,0c0.1,0,0.1,0,0.1-0.1c0-0.3,0-0.7,0-1c0-0.1,0-0.1-0.1-0.1c-0.2,0-0.3,0-0.5,0s-0.3,0-0.5,0
		c-0.1,0-0.1,0-0.1,0.1c0,0.3,0,0.7,0,1C22.6,9.4,22.6,9.4,22.7,9.4z"/>
	<path d="M24,16.3c0-0.3,0-0.6,0-0.9v-0.1c0,0,0-0.1-0.1-0.1l0,0h-0.1c-0.3,0-0.5,0-0.8,0s-0.2,0-0.2-0.2c0-0.3,0-0.6,0-0.8
		c0-0.1,0-0.1-0.1-0.1c-0.3,0-0.7,0-1,0.1c-0.1,0-0.1,0-0.1,0.1c0,0.3,0,0.7,0.1,1c0,0.1,0,0.1,0.1,0.1c0.2,0,0.3,0,0.5,0l0,0
		c0.1,0,0.3,0,0.4,0c0.2,0,0.2,0,0.2,0.2c0,0.3,0,0.6,0,0.8c0,0.1,0,0.1,0.1,0.1c0.3,0,0.6,0,0.9,0c0,0,0,0,0.1,0
		C24,16.5,24,16.4,24,16.3C24,16.4,24,16.3,24,16.3z"/>
	<path d="M21.4,14c0-0.3,0-0.6,0-0.9V13c0,0,0-0.1-0.1-0.1l0,0h-0.1c-0.3,0-0.5,0-0.8,0s-0.2,0-0.2-0.2c0,0,0,0,0-0.1
		c0-0.3,0-0.5,0-0.8c0-0.1,0-0.1-0.1-0.1c0,0,0,0-0.1,0h-0.1c-0.3,0-0.6,0-0.8,0c-0.1,0-0.1,0-0.1,0.1c-0.1,0-0.1,0-0.1,0.1
		c0,0.3,0,0.5,0,0.8v0.1c0,0.2,0,0.2-0.2,0.2c-0.3,0-0.6,0-0.8,0c-0.1,0-0.1,0-0.1,0.1c0,0.3,0,0.6,0,0.9c0,0,0,0,0,0.1
		s0,0.1,0.1,0.1H18c0.3,0,0.6,0,0.9,0H19c0,0,0.1,0,0.1-0.1l0,0V14c0-0.3,0-0.5,0-0.8c0-0.1,0-0.1,0-0.2c0,0,0,0,0.1,0
		c0.2,0,0.3,0,0.5,0l0,0H20h0h0.1c0.1,0,0.1,0,0.1,0.2c0,0.3,0,0.6,0,0.8c0,0.1,0,0.1,0.1,0.1c0.3,0,0.6,0,0.9,0c0,0,0,0,0.1,0
		C21.4,14.2,21.4,14.1,21.4,14C21.4,14.1,21.4,14,21.4,14z"/>
	<path d="M18.7,11.9L18.7,11.9c0.1,0,0.1,0,0.1-0.1v-0.1c0-0.3,0-0.6,0-0.9v-0.1c0,0,0-0.1-0.1-0.1l0,0h-0.1c-0.3,0-0.5,0-0.8,0
		s-0.2,0-0.2-0.2c0-0.3,0-0.6,0-0.8c0-0.1,0-0.1-0.1-0.1c-0.3,0-0.7,0-1,0.1c-0.1,0-0.1,0-0.1,0.1c0,0.3,0,0.7,0.1,1
		c0,0.1,0,0.1,0.1,0.1c0.2,0,0.3,0,0.5,0l0,0c0.1,0,0.3,0,0.4,0c0.2,0,0.2,0,0.2,0.2c0,0.3,0,0.6,0,0.8c0,0.1,0,0.1,0.1,0.1
		C18,11.9,18.4,11.9,18.7,11.9z"/>
	<path d="M16.2,9.5c0-0.3,0-0.7-0.1-1c0-0.1,0-0.1-0.1-0.1c-0.3,0-0.7,0-1,0.1c-0.1,0-0.1,0-0.1,0.1c0,0.2,0,0.3,0,0.5s0,0.3,0,0.5
		c0,0.1,0,0.1,0.1,0.1c0.3,0,0.7,0,1-0.1C16.2,9.6,16.2,9.6,16.2,9.5z"/>
</g>
</svg>
